<svg xmlns="http://www.w3.org/2000/svg" width="275" height="22" viewBox="0 0 275 22">
  <g id="Group_4055" data-name="Group 4055" transform="translate(-6847 220)">
    <path id="Path_42534" data-name="Path 42534" d="M0,0H76V22H0Z" transform="translate(6847 -220)" fill="#dd304b"/>
    <path id="Path_42531" data-name="Path 42531" d="M0,0H118V22H0Z" transform="translate(7004 -220)" fill="#d8b153"/>
    <path id="Path_42535" data-name="Path 42535" d="M-25.993-8.03a4.016,4.016,0,0,1,2.354,1.342,3.736,3.736,0,0,1,.9,2.508,3.887,3.887,0,0,1-1.276,3.025A5.329,5.329,0,0,1-27.709,0H-33.1V-15.51h5.324a5.144,5.144,0,0,1,3.509,1.045,3.564,3.564,0,0,1,1.177,2.8A3.517,3.517,0,0,1-23.9-9.229,3.847,3.847,0,0,1-25.993-8.03Zm-5.544-.55h3.564A3.6,3.6,0,0,0-25.5-9.339a2.65,2.65,0,0,0,.847-2.079,2.606,2.606,0,0,0-.836-2.046,3.773,3.773,0,0,0-2.574-.748h-3.476Zm3.564,7.26a4.121,4.121,0,0,0,2.706-.8A2.742,2.742,0,0,0-24.3-4.356a2.755,2.755,0,0,0-.99-2.233,4.135,4.135,0,0,0-2.728-.825h-3.52V-1.32ZM-10.659,0-14.9-6.468h-2.508V0h-1.562V-15.51h4.752a5.459,5.459,0,0,1,3.9,1.232,4.383,4.383,0,0,1,1.287,3.322,4.282,4.282,0,0,1-1.089,3.08,4.91,4.91,0,0,1-3.157,1.364L-8.9,0Zm-6.754-7.634h3.08q3.74,0,3.74-3.234,0-3.3-3.74-3.3h-3.08ZM3.619-3.784H-3.443L-4.851,0H-6.5l5.72-15.158H.957L6.677,0H5.005ZM3.157-5.016.1-13.376-3-5.016ZM10.483-15.51,15.477-1.8,20.515-15.51h1.694L16.445,0H14.531L8.789-15.51Zm16.566,1.254V-8.4H33.1v1.21h-6.05v5.918h6.71V0H25.487V-15.51h8.272v1.254Z" transform="translate(6884 -201)" fill="#fff"/>
    <path id="Path_42533" data-name="Path 42533" d="M-23-8.008a3.9,3.9,0,0,1,2.233,1.364,3.734,3.734,0,0,1,.825,2.4,3.864,3.864,0,0,1-1.331,3.124A5.767,5.767,0,0,1-25.091,0h-7.238V-15.554h7.062a5.766,5.766,0,0,1,3.674,1.034,3.55,3.55,0,0,1,1.3,2.948,3.632,3.632,0,0,1-.748,2.343A3.447,3.447,0,0,1-23-8.008ZM-28.567-9.2H-26.1q1.958,0,1.958-1.672t-2-1.672h-2.42Zm2.684,6.138q2.09,0,2.09-1.716a1.635,1.635,0,0,0-.55-1.309A2.325,2.325,0,0,0-25.9-6.556h-2.662v3.5ZM-9.449-15.8a7.914,7.914,0,0,1,3.993,1.023,7.453,7.453,0,0,1,2.827,2.838,8.141,8.141,0,0,1,1.034,4.1A8.133,8.133,0,0,1-2.64-3.718,7.51,7.51,0,0,1-5.478-.869,7.871,7.871,0,0,1-9.449.154,7.871,7.871,0,0,1-13.42-.869a7.51,7.51,0,0,1-2.838-2.849A8.133,8.133,0,0,1-17.3-7.832a8.073,8.073,0,0,1,1.045-4.1,7.532,7.532,0,0,1,2.838-2.838A7.871,7.871,0,0,1-9.449-15.8Zm0,3.5a3.772,3.772,0,0,0-2.937,1.2,4.677,4.677,0,0,0-1.089,3.267,4.685,4.685,0,0,0,1.089,3.256,3.755,3.755,0,0,0,2.937,1.21,3.763,3.763,0,0,0,2.926-1.21,4.656,4.656,0,0,0,1.1-3.256,4.685,4.685,0,0,0-1.089-3.256A3.755,3.755,0,0,0-9.449-12.3ZM5.4-2.882h5.016V0H1.639V-15.554H5.4ZM27.269-7.81a8.25,8.25,0,0,1-.979,4.059A6.858,6.858,0,0,1,23.474-.99,8.981,8.981,0,0,1,19.151,0H13.277V-15.554h5.874a9.132,9.132,0,0,1,4.334.968,6.753,6.753,0,0,1,2.805,2.728A8.188,8.188,0,0,1,27.269-7.81ZM18.821-3.366a4.754,4.754,0,0,0,3.421-1.166A4.317,4.317,0,0,0,23.463-7.81a4.317,4.317,0,0,0-1.221-3.278,4.754,4.754,0,0,0-3.421-1.166H17.039v8.888Z" transform="translate(6964 -201)" fill="#fff"/>
    <path id="Path_42532" data-name="Path 42532" d="M-47.256-8.03A4.016,4.016,0,0,1-44.9-6.688,3.736,3.736,0,0,1-44-4.18a3.887,3.887,0,0,1-1.276,3.025A5.329,5.329,0,0,1-48.972,0h-5.39V-15.51h5.324a5.144,5.144,0,0,1,3.509,1.045,3.564,3.564,0,0,1,1.177,2.8,3.517,3.517,0,0,1-.814,2.431A3.847,3.847,0,0,1-47.256-8.03ZM-52.8-8.58h3.564a3.6,3.6,0,0,0,2.475-.759,2.65,2.65,0,0,0,.847-2.079,2.606,2.606,0,0,0-.836-2.046,3.773,3.773,0,0,0-2.574-.748H-52.8Zm3.564,7.26a4.121,4.121,0,0,0,2.706-.8,2.742,2.742,0,0,0,.968-2.233,2.755,2.755,0,0,0-.99-2.233,4.135,4.135,0,0,0-2.728-.825H-52.8V-1.32Zm10.56-12.936V-8.4h6.05v1.21h-6.05v5.918h6.71V0h-8.272V-15.51h8.272v1.254Zm19.47,10.472h-7.062L-27.676,0h-1.65l5.72-15.158h1.738L-16.148,0H-17.82Zm-.462-1.232-3.058-8.36-3.1,8.36Zm8.25-10.494v9.394a5.214,5.214,0,0,0,1.089,3.652A3.88,3.88,0,0,0-7.348-1.3,3.81,3.81,0,0,0-4.389-2.464,5.287,5.287,0,0,0-3.322-6.116V-15.51h1.54v9.394A6.513,6.513,0,0,1-3.3-1.408,5.414,5.414,0,0,1-7.37.154a5.414,5.414,0,0,1-4.07-1.562,6.513,6.513,0,0,1-1.518-4.708V-15.51Zm23.1,0v1.254H7.26V0H5.72V-14.256H1.32V-15.51Zm4.752,0V0H14.872V-15.51Zm12.892,0v1.254H22.462v5.918H28.4v1.21h-5.94V0H20.9V-15.51Zm5.06,0v9.394a5.214,5.214,0,0,0,1.089,3.652A3.88,3.88,0,0,0,38.456-1.3a3.81,3.81,0,0,0,2.959-1.166,5.287,5.287,0,0,0,1.067-3.652V-15.51h1.54v9.394A6.513,6.513,0,0,1,42.5-1.408,5.414,5.414,0,0,1,38.434.154a5.414,5.414,0,0,1-4.07-1.562,6.513,6.513,0,0,1-1.518-4.708V-15.51ZM49.962-1.232h5.632V0H48.4V-15.51h1.562Z" transform="translate(7061 -201)" fill="#fff"/>
  </g>
</svg>
